<svg xmlns="http://www.w3.org/2000/svg" viewBox="0 0 1320 24" width="1320" height="24"><g fill="none" stroke="#FF4685" stroke-width="1.2"><path d="M18 6L6 18" stroke-dasharray="0,16.97056274847714" stroke-dashoffset="16.970563"/><path d="M6 6l12.725 12" stroke-dasharray="0,17.490337422865803" stroke-dashoffset="17.490337"/></g><g fill="none" stroke="#FF4685" stroke-width="1.2"><path d="M42 6L30 18" stroke-dasharray="0,16.97056274847714" stroke-dashoffset="16.970563"/><path d="M30 6l12.725 12" stroke-dasharray="0.01046098834661165,17.47987643451919" stroke-dashoffset="17.490337"/></g><g fill="none" stroke="#FF4685" stroke-width="1.2"><path d="M66 6L54 18" stroke-dasharray="0,16.97056274847714" stroke-dashoffset="16.970563"/><path d="M54 6l12.725 12" stroke-dasharray="0.043296777144899525,17.447040645720904" stroke-dashoffset="17.490337"/></g><g fill="none" stroke="#FF4685" stroke-width="1.2"><path d="M90 6L78 18" stroke-dasharray="0,16.97056274847714" stroke-dashoffset="16.970563"/><path d="M78 6l12.725 12" stroke-dasharray="0.10092295899388054,17.389414463871923" stroke-dashoffset="17.490337"/></g><g fill="none" stroke="#FF4685" stroke-width="1.2"><path d="M114 6l-12 12" stroke-dasharray="0,16.97056274847714" stroke-dashoffset="16.970563"/><path d="M102 6l12.725 12" stroke-dasharray="0.18611039288464862,17.304227029981153" stroke-dashoffset="17.490337"/></g><g fill="none" stroke="#FF4685" stroke-width="1.2"><path d="M138 6l-12 12" stroke-dasharray="0,16.97056274847714" stroke-dashoffset="16.970563"/><path d="M126 6l12.725 12" stroke-dasharray="0.3020390056210459,17.188298417244756" stroke-dashoffset="17.490337"/></g><g fill="none" stroke="#FF4685" stroke-width="1.2"><path d="M162 6l-12 12" stroke-dasharray="0,16.97056274847714" stroke-dashoffset="16.970563"/><path d="M150 6l12.725 12" stroke-dasharray="0.45235285722341567,17.037984565642386" stroke-dashoffset="17.490337"/></g><g fill="none" stroke="#FF4685" stroke-width="1.2"><path d="M186 6l-12 12" stroke-dasharray="0,16.97056274847714" stroke-dashoffset="16.970563"/><path d="M174 6l12.725 12" stroke-dasharray="0.6412091423453262,16.84912828052048" stroke-dashoffset="17.490337"/></g><g fill="none" stroke="#FF4685" stroke-width="1.2"><path d="M210 6l-12 12" stroke-dasharray="0,16.97056274847714" stroke-dashoffset="16.970563"/><path d="M198 6l12.725 12" stroke-dasharray="0.8733066614798323,16.61703076138597" stroke-dashoffset="17.490337"/></g><g fill="none" stroke="#FF4685" stroke-width="1.2"><path d="M234 6l-12 12" stroke-dasharray="0,16.97056274847714" stroke-dashoffset="16.970563"/><path d="M222 6l12.725 12" stroke-dasharray="1.1538671546501285,16.336470268215674" stroke-dashoffset="17.490337"/></g><g fill="none" stroke="#FF4685" stroke-width="1.2"><path d="M258 6l-12 12" stroke-dasharray="0,16.97056274847714" stroke-dashoffset="16.970563"/><path d="M246 6l12.725 12" stroke-dasharray="1.4885235898165952,16.00181383304921" stroke-dashoffset="17.490337"/></g><g fill="none" stroke="#FF4685" stroke-width="1.2"><path d="M282 6l-12 12" stroke-dasharray="0,16.97056274847714" stroke-dashoffset="16.970563"/><path d="M270 6l12.725 12" stroke-dasharray="1.8830421452342547,15.607295277631549" stroke-dashoffset="17.490337"/></g><g fill="none" stroke="#FF4685" stroke-width="1.2"><path d="M306 6l-12 12" stroke-dasharray="0,16.97056274847714" stroke-dashoffset="16.970563"/><path d="M294 6l12.725 12" stroke-dasharray="2.342774292785873,15.14756313007993" stroke-dashoffset="17.490337"/></g><g fill="none" stroke="#FF4685" stroke-width="1.2"><path d="M330 6l-12 12" stroke-dasharray="0,16.97056274847714" stroke-dashoffset="16.970563"/><path d="M318 6l12.725 12" stroke-dasharray="2.8717234142052424,14.618614008660561" stroke-dashoffset="17.490337"/></g><g fill="none" stroke="#FF4685" stroke-width="1.2"><path d="M354 6l-12 12" stroke-dasharray="0,16.97056274847714" stroke-dashoffset="16.970563"/><path d="M342 6l12.725 12" stroke-dasharray="3.4711683860917257,14.019169036774077" stroke-dashoffset="17.490337"/></g><g fill="none" stroke="#FF4685" stroke-width="1.2"><path d="M378 6l-12 12" stroke-dasharray="0,16.97056274847714" stroke-dashoffset="16.970563"/><path d="M366 6l12.725 12" stroke-dasharray="4.137992764566678,13.352344658299124" stroke-dashoffset="17.490337"/></g><g fill="none" stroke="#FF4685" stroke-width="1.2"><path d="M402 6l-12 12" stroke-dasharray="0,16.97056274847714" stroke-dashoffset="16.970563"/><path d="M390 6l12.725 12" stroke-dasharray="4.863250188102474,12.62708723476333" stroke-dashoffset="17.490337"/></g><g fill="none" stroke="#FF4685" stroke-width="1.2"><path d="M426 6l-12 12" stroke-dasharray="0,16.97056274847714" stroke-dashoffset="16.970563"/><path d="M414 6l12.725 12" stroke-dasharray="5.631854081601932,11.85848334126387" stroke-dashoffset="17.490337"/></g><g fill="none" stroke="#FF4685" stroke-width="1.2"><path d="M450 6l-12 12" stroke-dasharray="0,16.97056274847714" stroke-dashoffset="16.970563"/><path d="M438 6l12.725 12" stroke-dasharray="6.424125871892469,11.066211550973334" stroke-dashoffset="17.490337"/></g><g fill="none" stroke="#FF4685" stroke-width="1.2"><path d="M474 6l-12 12" stroke-dasharray="0,16.97056274847714" stroke-dashoffset="16.970563"/><path d="M462 6l12.725 12" stroke-dasharray="7.218988347325268,10.271349075540536" stroke-dashoffset="17.490337"/></g><g fill="none" stroke="#FF4685" stroke-width="1.2"><path d="M498 6l-12 12" stroke-dasharray="0,16.97056274847714" stroke-dashoffset="16.970563"/><path d="M486 6l12.725 12" stroke-dasharray="7.997487216589525,9.492850206276279" stroke-dashoffset="17.490337"/></g><g fill="none" stroke="#FF4685" stroke-width="1.2"><path d="M522 6l-12 12" stroke-dasharray="0,16.97056274847714" stroke-dashoffset="16.970563"/><path d="M510 6l12.725 12" stroke-dasharray="8.7451687114329,8.745168711432903" stroke-dashoffset="17.490337"/></g><g fill="none" stroke="#FF4685" stroke-width="1.2"><path d="M546 6l-12 12" stroke-dasharray="0,16.97056274847714" stroke-dashoffset="16.970563"/><path d="M534 6l12.725 12" stroke-dasharray="9.452747275523452,8.037590147342351" stroke-dashoffset="17.490337"/></g><g fill="none" stroke="#FF4685" stroke-width="1.2"><path d="M570 6l-12 12" stroke-dasharray="0,16.97056274847714" stroke-dashoffset="16.970563"/><path d="M558 6l12.725 12" stroke-dasharray="10.115477796042194,7.374859626823609" stroke-dashoffset="17.490337"/></g><g fill="none" stroke="#FF4685" stroke-width="1.2"><path d="M594 6l-12 12" stroke-dasharray="0,16.97056274847714" stroke-dashoffset="16.970563"/><path d="M582 6l12.725 12" stroke-dasharray="10.73197915734512,6.758358265520682" stroke-dashoffset="17.490337"/></g><g fill="none" stroke="#FF4685" stroke-width="1.2"><path d="M618 6l-12 12" stroke-dasharray="0,16.97056274847714" stroke-dashoffset="16.970563"/><path d="M606 6l12.725 12" stroke-dasharray="11.303062677321986,6.187274745543817" stroke-dashoffset="17.490337"/></g><g fill="none" stroke="#FF4685" stroke-width="1.2"><path d="M642 6l-12 12" stroke-dasharray="0,16.97056274847714" stroke-dashoffset="16.970563"/><path d="M630 6l12.725 12" stroke-dasharray="11.830809398408064,5.659528024457739" stroke-dashoffset="17.490337"/></g><g fill="none" stroke="#FF4685" stroke-width="1.2"><path d="M666 6l-12 12" stroke-dasharray="0.001869381676481818,16.968693366800657" stroke-dashoffset="16.970563"/><path d="M654 6l12.725 12" stroke-dasharray="12.317932816378512,5.172404606487291" stroke-dashoffset="17.490337"/></g><g fill="none" stroke="#FF4685" stroke-width="1.2"><path d="M690 6l-12 12" stroke-dasharray="0.05305501421326258,16.917507734263875" stroke-dashoffset="16.970563"/><path d="M678 6l12.725 12" stroke-dasharray="12.76737600999068,4.722961412875122" stroke-dashoffset="17.490337"/></g><g fill="none" stroke="#FF4685" stroke-width="1.2"><path d="M714 6l-12 12" stroke-dasharray="0.18481061383373662,16.785752134643403" stroke-dashoffset="16.970563"/><path d="M702 6l12.725 12" stroke-dasharray="13.182074798276773,4.30826262458903" stroke-dashoffset="17.490337"/></g><g fill="none" stroke="#FF4685" stroke-width="1.2"><path d="M738 6l-12 12" stroke-dasharray="0.4144962004141064,16.556066548063033" stroke-dashoffset="16.970563"/><path d="M726 6l12.725 12" stroke-dasharray="13.5648290235425,3.9255083993233018" stroke-dashoffset="17.490337"/></g><g fill="none" stroke="#FF4685" stroke-width="1.2"><path d="M762 6l-12 12" stroke-dasharray="0.7642493171591324,16.20631343131801" stroke-dashoffset="16.970563"/><path d="M750 6l12.725 12" stroke-dasharray="13.918240424626624,3.5720969982391777" stroke-dashoffset="17.490337"/></g><g fill="none" stroke="#FF4685" stroke-width="1.2"><path d="M786 6l-12 12" stroke-dasharray="1.2615965487514444,15.708966199725696" stroke-dashoffset="16.970563"/><path d="M774 6l12.725 12" stroke-dasharray="14.244689718617707,3.2456477042480962" stroke-dashoffset="17.490337"/></g><g fill="none" stroke="#FF4685" stroke-width="1.2"><path d="M810 6l-12 12" stroke-dasharray="1.9383069846496082,15.032255763827532" stroke-dashoffset="16.970563"/><path d="M798 6l12.725 12" stroke-dasharray="14.546335720756852,2.9440017021089506" stroke-dashoffset="17.490337"/></g><g fill="none" stroke="#FF4685" stroke-width="1.2"><path d="M834 6l-12 12" stroke-dasharray="2.824099538126966,14.146463210350172" stroke-dashoffset="16.970563"/><path d="M822 6l12.725 12" stroke-dasharray="14.825126094938165,2.6652113279276386" stroke-dashoffset="17.490337"/></g><g fill="none" stroke="#FF4685" stroke-width="1.2"><path d="M858 6l-12 12" stroke-dasharray="3.929899773595295,13.040662974881844" stroke-dashoffset="16.970563"/><path d="M846 6l12.725 12" stroke-dasharray="15.082813598759914,2.407523824105888" stroke-dashoffset="17.490337"/></g><g fill="none" stroke="#FF4685" stroke-width="1.2"><path d="M882 6l-12 12" stroke-dasharray="5.22139265668034,11.7491700917968" stroke-dashoffset="16.970563"/><path d="M870 6l12.725 12" stroke-dasharray="15.32097430793201,2.1693631149337933" stroke-dashoffset="17.490337"/></g><g fill="none" stroke="#FF4685" stroke-width="1.2"><path d="M906 6l-12 12" stroke-dasharray="6.607211084352047,10.363351664125092" stroke-dashoffset="16.970563"/><path d="M894 6l12.725 12" stroke-dasharray="15.54102588078226,1.949311542083542" stroke-dashoffset="17.490337"/></g><g fill="none" stroke="#FF4685" stroke-width="1.2"><path d="M930 6l-12 12" stroke-dasharray="7.972900377754722,8.997662370722416" stroke-dashoffset="16.970563"/><path d="M918 6l12.725 12" stroke-dasharray="15.744244855290406,1.7460925675753978" stroke-dashoffset="17.490337"/></g><g fill="none" stroke="#FF4685" stroke-width="1.2"><path d="M954 6l-12 12" stroke-dasharray="9.234081050041391,7.736481698435748" stroke-dashoffset="16.970563"/><path d="M942 6l12.725 12" stroke-dasharray="15.931782512018197,1.5585549108476071" stroke-dashoffset="17.490337"/></g><g fill="none" stroke="#FF4685" stroke-width="1.2"><path d="M978 6l-12 12" stroke-dasharray="10.354609794124254,6.615952954352885" stroke-dashoffset="16.970563"/><path d="M966 6l12.725 12" stroke-dasharray="16.104679142982963,1.3856582798828383" stroke-dashoffset="17.490337"/></g><g fill="none" stroke="#FF4685" stroke-width="1.2"><path d="M1002 6l-12 12" stroke-dasharray="11.331870585019972,5.638692163457167" stroke-dashoffset="16.970563"/><path d="M990 6l12.725 12" stroke-dasharray="16.26387673417464,1.226460688691162" stroke-dashoffset="17.490337"/></g><g fill="none" stroke="#FF4685" stroke-width="1.2"><path d="M1026 6l-12 12" stroke-dasharray="12.17823737401233,4.792325374464809" stroke-dashoffset="16.970563"/><path d="M1014 6l12.725 12" stroke-dasharray="16.41023015549,1.0801072673758032" stroke-dashoffset="17.490337"/></g><g fill="none" stroke="#FF4685" stroke-width="1.2"><path d="M1050 6l-12 12" stroke-dasharray="12.910190436411142,4.060372312065998" stroke-dashoffset="16.970563"/><path d="M1038 6l12.725 12" stroke-dasharray="16.544516990795383,0.945820432070418" stroke-dashoffset="17.490337"/></g><g fill="none" stroke="#FF4685" stroke-width="1.2"><path d="M1074 6l-12 12" stroke-dasharray="13.54368570775908,3.4268770407180593" stroke-dashoffset="16.970563"/><path d="M1062 6l12.725 12" stroke-dasharray="16.667446153160096,0.8228912697057079" stroke-dashoffset="17.490337"/></g><g fill="none" stroke="#FF4685" stroke-width="1.2"><path d="M1098 6l-12 12" stroke-dasharray="14.092660933706279,2.87790181477086" stroke-dashoffset="16.970563"/><path d="M1086 6l12.725 12" stroke-dasharray="16.779665428182778,0.7106719946830267" stroke-dashoffset="17.490337"/></g><g fill="none" stroke="#FF4685" stroke-width="1.2"><path d="M1122 6l-12 12" stroke-dasharray="14.56881924107428,2.4017435074028586" stroke-dashoffset="16.970563"/><path d="M1110 6l12.725 12" stroke-dasharray="16.8817680788852,0.6085693439806024" stroke-dashoffset="17.490337"/></g><g fill="none" stroke="#FF4685" stroke-width="1.2"><path d="M1146 6l-12 12" stroke-dasharray="14.981851275576023,1.9887114729011162" stroke-dashoffset="16.970563"/><path d="M1134 6l12.725 12" stroke-dasharray="16.974298632984244,0.5160387898815585" stroke-dashoffset="17.490337"/></g><g fill="none" stroke="#FF4685" stroke-width="1.2"><path d="M1170 6l-12 12" stroke-dasharray="15.33976285693036,1.6307998915467798" stroke-dashoffset="16.970563"/><path d="M1158 6l12.725 12" stroke-dasharray="17.057757959786702,0.4325794630791022" stroke-dashoffset="17.490337"/></g><g fill="none" stroke="#FF4685" stroke-width="1.2"><path d="M1194 6l-12 12" stroke-dasharray="15.64918955153027,1.321373196946869" stroke-dashoffset="16.970563"/><path d="M1182 6l12.725 12" stroke-dasharray="17.132607730732577,0.3577296921332277" stroke-dashoffset="17.490337"/></g><g fill="none" stroke="#FF4685" stroke-width="1.2"><path d="M1218 6l-12 12" stroke-dasharray="15.915663778878686,1.0548989695984534" stroke-dashoffset="16.970563"/><path d="M1206 6l12.725 12" stroke-dasharray="17.1992743453635,0.2910630775023048" stroke-dashoffset="17.490337"/></g><g fill="none" stroke="#FF4685" stroke-width="1.2"><path d="M1242 6l-12 12" stroke-dasharray="16.14383088045216,0.8267318680249769" stroke-dashoffset="16.970563"/><path d="M1230 6l12.725 12" stroke-dasharray="17.25815239347764,0.23218502938816196" stroke-dashoffset="17.490337"/></g><g fill="none" stroke="#FF4685" stroke-width="1.2"><path d="M1266 6l-12 12" stroke-dasharray="16.337620459540187,0.6329422889369511" stroke-dashoffset="16.970563"/><path d="M1254 6l12.725 12" stroke-dasharray="17.309607714511586,0.1807297083542161" stroke-dashoffset="17.490337"/></g><g fill="none" stroke="#FF4685" stroke-width="1.2"><path d="M1290 6l-12 12" stroke-dasharray="16.50038134922845,0.4701813992486879" stroke-dashoffset="16.970563"/><path d="M1278 6l12.725 12" stroke-dasharray="17.353980106715525,0.1363573161502794" stroke-dashoffset="17.490337"/></g><g fill="none" stroke="#FF4685" stroke-width="1.2"><path d="M1314 6l-12 12" stroke-dasharray="16.634987935391276,0.3355748130858612" stroke-dashoffset="16.970563"/><path d="M1302 6l12.725 12" stroke-dasharray="17.391585731360223,0.09875169150558095" stroke-dashoffset="17.490337"/></g></svg>