<svg xmlns="http://www.w3.org/2000/svg" viewBox="0 0 1320 24" width="1320" height="24"><path d="M4.188 16.44c-2.452-4.314-.943-9.8 3.374-12.253 4.313-2.451 9.798-.942 12.25 3.372 2.452 4.316.944 9.801-3.37 12.252-4.317 2.453-9.803.944-12.254-3.371z" fill="none" stroke="#000000" stroke-dasharray="0,56.467601555786956" stroke-dashoffset="56.467602"/><path d="M28.188 16.44c-2.452-4.314-.943-9.8 3.374-12.253 4.313-2.451 9.798-.942 12.25 3.372 2.452 4.316.944 9.801-3.37 12.252-4.317 2.453-9.803.944-12.254-3.371z" fill="none" stroke="#000000" stroke-dasharray="0.04185144543414616,56.42575011035281" stroke-dashoffset="56.467602"/><path d="M52.188 16.44c-2.452-4.314-.943-9.8 3.374-12.253 4.313-2.451 9.798-.942 12.25 3.372 2.452 4.316.944 9.801-3.37 12.252-4.317 2.453-9.803.944-12.254-3.371z" fill="none" stroke="#000000" stroke-dasharray="0.1739148582207208,56.29368669756624" stroke-dashoffset="56.467602"/><path d="M76.188 16.44c-2.452-4.314-.943-9.8 3.374-12.253 4.313-2.451 9.798-.942 12.25 3.372 2.452 4.316.944 9.801-3.37 12.252-4.317 2.453-9.803.944-12.254-3.371z" fill="none" stroke="#000000" stroke-dasharray="0.40714107072251277,56.060460485064446" stroke-dashoffset="56.467602"/><path d="M100.188 16.44c-2.452-4.314-.943-9.8 3.374-12.253 4.313-2.451 9.798-.942 12.25 3.372 2.452 4.316.944 9.801-3.37 12.252-4.317 2.453-9.803.944-12.254-3.371z" fill="none" stroke="#000000" stroke-dasharray="0.7542871580447377,55.71331439774222" stroke-dashoffset="56.467602"/><path d="M124.188 16.44c-2.452-4.314-.943-9.8 3.374-12.253 4.313-2.451 9.798-.942 12.25 3.372 2.452 4.316.944 9.801-3.37 12.252-4.317 2.453-9.803.944-12.254-3.371z" fill="none" stroke="#000000" stroke-dasharray="1.2302139615063026,55.237387594280655" stroke-dashoffset="56.467602"/><path d="M148.188 16.44c-2.452-4.314-.943-9.8 3.374-12.253 4.313-2.451 9.798-.942 12.25 3.372 2.452 4.316.944 9.801-3.37 12.252-4.317 2.453-9.803.944-12.254-3.371z" fill="none" stroke="#000000" stroke-dasharray="1.8521782003969056,54.61542335539005" stroke-dashoffset="56.467602"/><path d="M172.188 16.44c-2.452-4.314-.943-9.8 3.374-12.253 4.313-2.451 9.798-.942 12.25 3.372 2.452 4.316.944 9.801-3.37 12.252-4.317 2.453-9.803.944-12.254-3.371z" fill="none" stroke="#000000" stroke-dasharray="2.6400523599151753,53.82754919587178" stroke-dashoffset="56.467602"/><path d="M196.188 16.44c-2.452-4.314-.943-9.8 3.374-12.253 4.313-2.451 9.798-.942 12.25 3.372 2.452 4.316.944 9.801-3.37 12.252-4.317 2.453-9.803.944-12.254-3.371z" fill="none" stroke="#000000" stroke-dasharray="3.616336060536964,52.85126549524999" stroke-dashoffset="56.467602"/><path d="M220.188 16.44c-2.452-4.314-.943-9.8 3.374-12.253 4.313-2.451 9.798-.942 12.25 3.372 2.452 4.316.944 9.801-3.37 12.252-4.317 2.453-9.803.944-12.254-3.371z" fill="none" stroke="#000000" stroke-dasharray="4.805702425515639,51.661899130271316" stroke-dashoffset="56.467602"/><path d="M244.188 16.44c-2.452-4.314-.943-9.8 3.374-12.253 4.313-2.451 9.798-.942 12.25 3.372 2.452 4.316.944 9.801-3.37 12.252-4.317 2.453-9.803.944-12.254-3.371z" fill="none" stroke="#000000" stroke-dasharray="6.233638077627012,50.23396347815994" stroke-dashoffset="56.467602"/><path d="M268.188 16.44c-2.452-4.314-.943-9.8 3.374-12.253 4.313-2.451 9.798-.942 12.25 3.372 2.452 4.316.944 9.801-3.37 12.252-4.317 2.453-9.803.944-12.254-3.371z" fill="none" stroke="#000000" stroke-dasharray="7.923514087189197,48.54408746859776" stroke-dashoffset="56.467602"/><path d="M292.188 16.44c-2.452-4.314-.943-9.8 3.374-12.253 4.313-2.451 9.798-.942 12.25 3.372 2.452 4.316.944 9.801-3.37 12.252-4.317 2.453-9.803.944-12.254-3.371z" fill="none" stroke="#000000" stroke-dasharray="9.891333630673037,46.57626792511392" stroke-dashoffset="56.467602"/><path d="M316.188 16.44c-2.452-4.314-.943-9.8 3.374-12.253 4.313-2.451 9.798-.942 12.25 3.372 2.452 4.316.944 9.801-3.37 12.252-4.317 2.453-9.803.944-12.254-3.371z" fill="none" stroke="#000000" stroke-dasharray="12.137885553161302,44.32971600262565" stroke-dashoffset="56.467602"/><path d="M340.188 16.44c-2.452-4.314-.943-9.8 3.374-12.253 4.313-2.451 9.798-.942 12.25 3.372 2.452 4.316.944 9.801-3.37 12.252-4.317 2.453-9.803.944-12.254-3.371z" fill="none" stroke="#000000" stroke-dasharray="14.639748551500311,41.827853004286645" stroke-dashoffset="56.467602"/><path d="M364.188 16.44c-2.452-4.314-.943-9.8 3.374-12.253 4.313-2.451 9.798-.942 12.25 3.372 2.452 4.316.944 9.801-3.37 12.252-4.317 2.453-9.803.944-12.254-3.371z" fill="none" stroke="#000000" stroke-dasharray="17.343474391825477,39.124127163961475" stroke-dashoffset="56.467602"/><path d="M388.188 16.44c-2.452-4.314-.943-9.8 3.374-12.253 4.313-2.451 9.798-.942 12.25 3.372 2.452 4.316.944 9.801-3.37 12.252-4.317 2.453-9.803.944-12.254-3.371z" fill="none" stroke="#000000" stroke-dasharray="20.168811911966152,36.298789643820804" stroke-dashoffset="56.467602"/><path d="M412.188 16.44c-2.452-4.314-.943-9.8 3.374-12.253 4.313-2.451 9.798-.942 12.25 3.372 2.452 4.316.944 9.801-3.37 12.252-4.317 2.453-9.803.944-12.254-3.371z" fill="none" stroke="#000000" stroke-dasharray="23.022985183733294,33.44461637205366" stroke-dashoffset="56.467602"/><path d="M436.188 16.44c-2.452-4.314-.943-9.8 3.374-12.253 4.313-2.451 9.798-.942 12.25 3.372 2.452 4.316.944 9.801-3.37 12.252-4.317 2.453-9.803.944-12.254-3.371z" fill="none" stroke="#000000" stroke-dasharray="25.819909054669466,30.64769250111749" stroke-dashoffset="56.467602"/><path d="M460.188 16.44c-2.452-4.314-.943-9.8 3.374-12.253 4.313-2.451 9.798-.942 12.25 3.372 2.452 4.316.944 9.801-3.37 12.252-4.317 2.453-9.803.944-12.254-3.371z" fill="none" stroke="#000000" stroke-dasharray="28.494413108347583,27.973188447439373" stroke-dashoffset="56.467602"/><path d="M484.188 16.44c-2.452-4.314-.943-9.8 3.374-12.253 4.313-2.451 9.798-.942 12.25 3.372 2.452 4.316.944 9.801-3.37 12.252-4.317 2.453-9.803.944-12.254-3.371z" fill="none" stroke="#000000" stroke-dasharray="31.00650447783001,25.461097077956946" stroke-dashoffset="56.467602"/><path d="M508.188 16.44c-2.452-4.314-.943-9.8 3.374-12.253 4.313-2.451 9.798-.942 12.25 3.372 2.452 4.316.944 9.801-3.37 12.252-4.317 2.453-9.803.944-12.254-3.371z" fill="none" stroke="#000000" stroke-dasharray="33.33787316250908,23.12972839327788" stroke-dashoffset="56.467602"/><path d="M532.188 16.44c-2.452-4.314-.943-9.8 3.374-12.253 4.313-2.451 9.798-.942 12.25 3.372 2.452 4.316.944 9.801-3.37 12.252-4.317 2.453-9.803.944-12.254-3.371z" fill="none" stroke="#000000" stroke-dasharray="35.485436368265525,20.98216518752143" stroke-dashoffset="56.467602"/><path d="M556.188 16.44c-2.452-4.314-.943-9.8 3.374-12.253 4.313-2.451 9.798-.942 12.25 3.372 2.452 4.316.944 9.801-3.37 12.252-4.317 2.453-9.803.944-12.254-3.371z" fill="none" stroke="#000000" stroke-dasharray="37.45528266890598,19.012318886880976" stroke-dashoffset="56.467602"/><path d="M580.188 16.44c-2.452-4.314-.943-9.8 3.374-12.253 4.313-2.451 9.798-.942 12.25 3.372 2.452 4.316.944 9.801-3.37 12.252-4.317 2.453-9.803.944-12.254-3.371z" fill="none" stroke="#000000" stroke-dasharray="39.25824391279067,17.209357642996288" stroke-dashoffset="56.467602"/><path d="M604.188 16.44c-2.452-4.314-.943-9.8 3.374-12.253 4.313-2.451 9.798-.942 12.25 3.372 2.452 4.316.944 9.801-3.37 12.252-4.317 2.453-9.803.944-12.254-3.371z" fill="none" stroke="#000000" stroke-dasharray="40.9070798905617,15.56052166522526" stroke-dashoffset="56.467602"/><path d="M628.188 16.44c-2.452-4.314-.943-9.8 3.374-12.253 4.313-2.451 9.798-.942 12.25 3.372 2.452 4.316.944 9.801-3.37 12.252-4.317 2.453-9.803.944-12.254-3.371z" fill="none" stroke="#000000" stroke-dasharray="42.41485550584868,14.052746049938282" stroke-dashoffset="56.467602"/><path d="M652.188 16.44c-2.452-4.314-.943-9.8 3.374-12.253 4.313-2.451 9.798-.942 12.25 3.372 2.452 4.316.944 9.801-3.37 12.252-4.317 2.453-9.803.944-12.254-3.371z" fill="none" stroke="#000000" stroke-dasharray="43.79408709819318,12.673514457593777" stroke-dashoffset="56.467602"/><path d="M676.188 16.44c-2.452-4.314-.943-9.8 3.374-12.253 4.313-2.451 9.798-.942 12.25 3.372 2.452 4.316.944 9.801-3.37 12.252-4.317 2.453-9.803.944-12.254-3.371z" fill="none" stroke="#000000" stroke-dasharray="45.0563465198076,11.411255035979357" stroke-dashoffset="56.467602"/><path d="M700.188 16.44c-2.452-4.314-.943-9.8 3.374-12.253 4.313-2.451 9.798-.942 12.25 3.372 2.452 4.316.944 9.801-3.37 12.252-4.317 2.453-9.803.944-12.254-3.371z" fill="none" stroke="#000000" stroke-dasharray="46.21212216515587,10.25547939063109" stroke-dashoffset="56.467602"/><path d="M724.188 16.44c-2.452-4.314-.943-9.8 3.374-12.253 4.313-2.451 9.798-.942 12.25 3.372 2.452 4.316.944 9.801-3.37 12.252-4.317 2.453-9.803.944-12.254-3.371z" fill="none" stroke="#000000" stroke-dasharray="47.27081626530202,9.196785290484938" stroke-dashoffset="56.467602"/><path d="M748.188 16.44c-2.452-4.314-.943-9.8 3.374-12.253 4.313-2.451 9.798-.942 12.25 3.372 2.452 4.316.944 9.801-3.37 12.252-4.317 2.453-9.803.944-12.254-3.371z" fill="none" stroke="#000000" stroke-dasharray="48.240809059057156,8.226792496729798" stroke-dashoffset="56.467602"/><path d="M772.188 16.44c-2.452-4.314-.943-9.8 3.374-12.253 4.313-2.451 9.798-.942 12.25 3.372 2.452 4.316.944 9.801-3.37 12.252-4.317 2.453-9.803.944-12.254-3.371z" fill="none" stroke="#000000" stroke-dasharray="49.129551314355396,7.338050241431562" stroke-dashoffset="56.467602"/><path d="M796.188 16.44c-2.452-4.314-.943-9.8 3.374-12.253 4.313-2.451 9.798-.942 12.25 3.372 2.452 4.316.944 9.801-3.37 12.252-4.317 2.453-9.803.944-12.254-3.371z" fill="none" stroke="#000000" stroke-dasharray="49.94366458008466,6.523936975702296" stroke-dashoffset="56.467602"/><path d="M820.188 16.44c-2.452-4.314-.943-9.8 3.374-12.253 4.313-2.451 9.798-.942 12.25 3.372 2.452 4.316.944 9.801-3.37 12.252-4.317 2.453-9.803.944-12.254-3.371z" fill="none" stroke="#000000" stroke-dasharray="50.68903868724041,5.778562868546542" stroke-dashoffset="56.467602"/><path d="M844.188 16.44c-2.452-4.314-.943-9.8 3.374-12.253 4.313-2.451 9.798-.942 12.25 3.372 2.452 4.316.944 9.801-3.37 12.252-4.317 2.453-9.803.944-12.254-3.371z" fill="none" stroke="#000000" stroke-dasharray="51.37092163805484,5.09667991773212" stroke-dashoffset="56.467602"/><path d="M868.188 16.44c-2.452-4.314-.943-9.8 3.374-12.253 4.313-2.451 9.798-.942 12.25 3.372 2.452 4.316.944 9.801-3.37 12.252-4.317 2.453-9.803.944-12.254-3.371z" fill="none" stroke="#000000" stroke-dasharray="51.9940000609062,4.473601494880754" stroke-dashoffset="56.467602"/><path d="M892.188 16.44c-2.452-4.314-.943-9.8 3.374-12.253 4.313-2.451 9.798-.942 12.25 3.372 2.452 4.316.944 9.801-3.37 12.252-4.317 2.453-9.803.944-12.254-3.371z" fill="none" stroke="#000000" stroke-dasharray="52.56246999398002,3.9051315618069387" stroke-dashoffset="56.467602"/><path d="M916.188 16.44c-2.452-4.314-.943-9.8 3.374-12.253 4.313-2.451 9.798-.942 12.25 3.372 2.452 4.316.944 9.801-3.37 12.252-4.317 2.453-9.803.944-12.254-3.371z" fill="none" stroke="#000000" stroke-dasharray="53.08009853735326,3.387503018433696" stroke-dashoffset="56.467602"/><path d="M940.188 16.44c-2.452-4.314-.943-9.8 3.374-12.253 4.313-2.451 9.798-.942 12.25 3.372 2.452 4.316.944 9.801-3.37 12.252-4.317 2.453-9.803.944-12.254-3.371z" fill="none" stroke="#000000" stroke-dasharray="53.55027724795135,2.9173243078356075" stroke-dashoffset="56.467602"/><path d="M964.188 16.44c-2.452-4.314-.943-9.8 3.374-12.253 4.313-2.451 9.798-.942 12.25 3.372 2.452 4.316.944 9.801-3.37 12.252-4.317 2.453-9.803.944-12.254-3.371z" fill="none" stroke="#000000" stroke-dasharray="53.97606825131976,2.4915333044671986" stroke-dashoffset="56.467602"/><path d="M988.188 16.44c-2.452-4.314-.943-9.8 3.374-12.253 4.313-2.451 9.798-.942 12.25 3.372 2.452 4.316.944 9.801-3.37 12.252-4.317 2.453-9.803.944-12.254-3.371z" fill="none" stroke="#000000" stroke-dasharray="54.36024402388847,2.1073575318984834" stroke-dashoffset="56.467602"/><path d="M1012.188 16.44c-2.452-4.314-.943-9.8 3.374-12.253 4.313-2.451 9.798-.942 12.25 3.372 2.452 4.316.944 9.801-3.37 12.252-4.317 2.453-9.803.944-12.254-3.371z" fill="none" stroke="#000000" stroke-dasharray="54.705321723199575,1.762279832587382" stroke-dashoffset="56.467602"/><path d="M1036.188 16.44c-2.452-4.314-.943-9.8 3.374-12.253 4.313-2.451 9.798-.942 12.25 3.372 2.452 4.316.944 9.801-3.37 12.252-4.317 2.453-9.803.944-12.254-3.371z" fill="none" stroke="#000000" stroke-dasharray="55.01359284597697,1.4540087098099852" stroke-dashoffset="56.467602"/><path d="M1060.188 16.44c-2.452-4.314-.943-9.8 3.374-12.253 4.313-2.451 9.798-.942 12.25 3.372 2.452 4.316.944 9.801-3.37 12.252-4.317 2.453-9.803.944-12.254-3.371z" fill="none" stroke="#000000" stroke-dasharray="55.2871488930414,1.1804526627455598" stroke-dashoffset="56.467602"/><path d="M1084.188 16.44c-2.452-4.314-.943-9.8 3.374-12.253 4.313-2.451 9.798-.942 12.25 3.372 2.452 4.316.944 9.801-3.37 12.252-4.317 2.453-9.803.944-12.254-3.371z" fill="none" stroke="#000000" stroke-dasharray="55.52790362483027,0.9396979309566856" stroke-dashoffset="56.467602"/><path d="M1108.188 16.44c-2.452-4.314-.943-9.8 3.374-12.253 4.313-2.451 9.798-.942 12.25 3.372 2.452 4.316.944 9.801-3.37 12.252-4.317 2.453-9.803.944-12.254-3.371z" fill="none" stroke="#000000" stroke-dasharray="55.73761240553872,0.7299891502482372" stroke-dashoffset="56.467602"/><path d="M1132.188 16.44c-2.452-4.314-.943-9.8 3.374-12.253 4.313-2.451 9.798-.942 12.25 3.372 2.452 4.316.944 9.801-3.37 12.252-4.317 2.453-9.803.944-12.254-3.371z" fill="none" stroke="#000000" stroke-dasharray="55.91788905882542,0.549712496961535" stroke-dashoffset="56.467602"/><path d="M1156.188 16.44c-2.452-4.314-.943-9.8 3.374-12.253 4.313-2.451 9.798-.942 12.25 3.372 2.452 4.316.944 9.801-3.37 12.252-4.317 2.453-9.803.944-12.254-3.371z" fill="none" stroke="#000000" stroke-dasharray="56.070220593406184,0.397380962380776" stroke-dashoffset="56.467602"/><path d="M1180.188 16.44c-2.452-4.314-.943-9.8 3.374-12.253 4.313-2.451 9.798-.942 12.25 3.372 2.452 4.316.944 9.801-3.37 12.252-4.317 2.453-9.803.944-12.254-3.371z" fill="none" stroke="#000000" stroke-dasharray="56.19598010182787,0.27162145395908177" stroke-dashoffset="56.467602"/><path d="M1204.188 16.44c-2.452-4.314-.943-9.8 3.374-12.253 4.313-2.451 9.798-.942 12.25 3.372 2.452 4.316.944 9.801-3.37 12.252-4.317 2.453-9.803.944-12.254-3.371z" fill="none" stroke="#000000" stroke-dasharray="56.29643808915995,0.1711634666270038" stroke-dashoffset="56.467602"/><path d="M1228.188 16.44c-2.452-4.314-.943-9.8 3.374-12.253 4.313-2.451 9.798-.942 12.25 3.372 2.452 4.316.944 9.801-3.37 12.252-4.317 2.453-9.803.944-12.254-3.371z" fill="none" stroke="#000000" stroke-dasharray="56.37277244911324,0.09482910667371482" stroke-dashoffset="56.467602"/><path d="M1252.188 16.44c-2.452-4.314-.943-9.8 3.374-12.253 4.313-2.451 9.798-.942 12.25 3.372 2.452 4.316.944 9.801-3.37 12.252-4.317 2.453-9.803.944-12.254-3.371z" fill="none" stroke="#000000" stroke-dasharray="56.42607727211049,0.04152428367646539" stroke-dashoffset="56.467602"/><path d="M1276.188 16.44c-2.452-4.314-.943-9.8 3.374-12.253 4.313-2.451 9.798-.942 12.25 3.372 2.452 4.316.944 9.801-3.37 12.252-4.317 2.453-9.803.944-12.254-3.371z" fill="none" stroke="#000000" stroke-dasharray="56.457370642121,0.010230913665958838" stroke-dashoffset="56.467602"/><path d="M1300.188 16.44c-2.452-4.314-.943-9.8 3.374-12.253 4.313-2.451 9.798-.942 12.25 3.372 2.452 4.316.944 9.801-3.37 12.252-4.317 2.453-9.803.944-12.254-3.371z" fill="none" stroke="#000000"/></svg>