<svg xmlns="http://www.w3.org/2000/svg" width="29.596" height="30" viewBox="0 0 29.596 30"><g transform="translate(0 0)"><g transform="translate(0 0)"><path d="M4.772,28.108A1.853,1.853,0,0,1,2.92,26.289l-.09-5.894a1.853,1.853,0,0,1,2.751-1.639l5.142,2.863a1.853,1.853,0,0,1,0,3.2l-5.007,3.02A1.841,1.841,0,0,1,4.772,28.108Zm.314-7.051.067,4.491,3.873-2.313Z" transform="translate(-2.83 -0.708)" fill="#80cbc4"/><path d="M6.737,28.248,8.353,26.62a12.732,12.732,0,1,0,0-17.964,12.6,12.6,0,0,0-2.706,3.986,1.123,1.123,0,0,1-1.392.6h0a1.123,1.123,0,0,1-.674-1.549A15,15,0,1,1,6.748,28.27Z" transform="translate(-2.751 -2.656)" fill="#80cbc4"/></g></g></svg>